<svg width="75" height="49" viewBox="0 0 75 49" fill="none" xmlns="http://www.w3.org/2000/svg">
<path d="M43.1178 15.3459H30.8918C30.9498 14.475 31.4616 14 32.379 14H41.621C42.548 14 43.0502 14.475 43.1178 15.3459Z" fill="white"/>
<path d="M45.0879 18.206H28.9218C29.057 17.2659 29.5205 16.7314 30.5442 16.7314H43.4655C44.4891 16.7314 44.9527 17.2659 45.0879 18.206Z" fill="white"/>
<path d="M43.9387 36H30.0613C28.043 36 27 34.9312 27 32.8925V22.9267C27 20.8781 28.043 19.8192 30.0613 19.8192H43.9387C45.9474 19.8192 47 20.888 47 22.9267V32.8925C47 34.9312 45.9474 36 43.9387 36Z" fill="white"/>
</svg>
