<svg width="51" height="50" viewBox="0 0 51 50" fill="none" xmlns="http://www.w3.org/2000/svg">
<g clip-path="url(#clip0_1376_4295)">
<circle cx="25.5" cy="25" r="25" fill="#1A1B22"/>
<path fill-rule="evenodd" clip-rule="evenodd" d="M17.5 21C17.2347 21 16.9803 21.1054 16.7928 21.2929C16.6053 21.4803 16.5 21.7347 16.5 22V32C16.5 32.2653 16.6053 32.5197 16.7928 32.7071C16.9803 32.8946 17.2347 33 17.5 33H33.5C33.7651 33 34.0194 32.8947 34.207 32.7071C34.3946 32.5194 34.5 32.265 34.5 32V22C34.5 21.735 34.3946 21.4806 34.207 21.2929C34.0194 21.1053 33.7651 21 33.5 21H31.5V19H33.5C34.2957 19 35.0586 19.3161 35.6212 19.8787C36.1836 20.4412 36.5 21.2042 36.5 22V32C36.5 32.7958 36.1836 33.5588 35.6212 34.1213C35.0586 34.6839 34.2957 35 33.5 35H17.5C16.7044 35 15.9412 34.684 15.3786 34.1213C14.8159 33.5586 14.5 32.7955 14.5 32V22C14.5 21.2045 14.8159 20.4414 15.3786 19.8787C15.9412 19.316 16.7044 19 17.5 19H19.5V21H17.5Z" fill="white"/>
<path fill-rule="evenodd" clip-rule="evenodd" d="M24.5 29V14H26.5V29H24.5Z" fill="white"/>
<path fill-rule="evenodd" clip-rule="evenodd" d="M24.793 29.7071L19.793 24.7071L21.2072 23.2928L25.5001 27.5857L29.793 23.2928L31.2072 24.7071L26.2072 29.7071C25.8167 30.0976 25.1835 30.0976 24.793 29.7071Z" fill="white"/>
</g>
<defs>
<clipPath id="clip0_1376_4295">
<rect width="50" height="50" fill="white" transform="translate(0.5)"/>
</clipPath>
</defs>
</svg>
