<svg width="75" height="49" viewBox="0 0 75 49" fill="none" xmlns="http://www.w3.org/2000/svg">
<path d="M36.9942 37C43.5713 37 49 31.5687 49 25C49 18.4313 43.5597 13 36.9826 13C30.4171 13 25 18.4313 25 25C25 31.5687 30.4287 37 36.9942 37ZM36.9826 26.8917C34.709 26.8801 32.9459 24.9768 32.9459 22.4584C32.9227 20.0909 34.7206 18.118 36.9826 18.118C39.2446 18.118 41.0193 20.0909 41.0193 22.4584C41.0193 24.9768 39.2562 26.9149 36.9826 26.8917ZM36.9826 35.0155C34.3842 35.0155 31.6235 33.9362 29.8719 32.0561C31.2059 30.06 33.8507 28.8994 36.9826 28.8994C40.0797 28.8994 42.7477 30.0368 44.0933 32.0561C42.3417 33.9362 39.581 35.0155 36.9826 35.0155Z" fill="white"/>
</svg>
